<?xml version="1.0" standalone="no"?>
<!DOCTYPE svg PUBLIC "-//W3C//DTD SVG 20010904//EN"
 "http://www.w3.org/TR/2001/REC-SVG-20010904/DTD/svg10.dtd">
<svg version="1.0" xmlns="http://www.w3.org/2000/svg"
 width="260.000000pt" height="260.000000pt" viewBox="0 0 260.000000 260.000000"
 preserveAspectRatio="xMidYMid meet">
<metadata>
Created by potrace 1.11, written by Peter Selinger 2001-2013
</metadata>
<g transform="translate(0.000000,260.000000) scale(0.100000,-0.100000)"
fill="#000000" stroke="none">
<path d="M1154 2039 c-326 -54 -591 -345 -618 -679 -5 -56 -3 -51 13 35 23
125 57 215 115 304 114 177 304 300 506 330 41 6 86 13 100 15 14 2 5 3 -20 3
-25 1 -68 -3 -96 -8z"/>
<path d="M1209 1799 c-122 -18 -249 -98 -326 -206 -50 -70 -93 -188 -93 -253
l0 -40 250 0 250 0 0 255 c0 198 -3 255 -12 254 -7 -1 -38 -5 -69 -10z"/>
<path d="M1440 1690 c0 -30 0 -30 60 -30 l59 0 3 -132 3 -133 28 0 29 0 1 130
2 130 58 3 c56 3 57 4 57 32 l0 30 -150 0 -150 0 0 -30z"/>
<path d="M1780 1554 l0 -165 31 3 30 3 2 163 2 162 -32 0 -33 0 0 -166z"/>
<path d="M1900 1560 l0 -160 30 0 30 0 0 105 c0 58 3 105 8 105 4 0 25 -27 47
-60 55 -82 78 -82 131 0 22 33 42 60 47 60 4 0 7 -47 7 -104 l0 -104 34 -4
c18 -2 108 -2 200 0 l166 4 0 29 0 28 -107 3 -107 3 0 30 0 30 97 3 97 3 0 29
0 29 -97 3 -97 3 0 30 0 30 107 3 107 3 0 29 0 30 -202 0 -203 -1 -54 -74
c-30 -41 -58 -75 -62 -75 -5 0 -32 34 -60 75 -48 68 -56 75 -86 75 l-33 0 0
-160z"/>
<path d="M1300 1035 l0 -255 28 0 c96 0 234 65 320 152 89 88 130 175 147 306
l7 52 -251 0 -251 0 0 -255z"/>
<path d="M2022 1207 c-51 -352 -294 -597 -645 -652 -47 -7 -67 -13 -47 -14 48
-1 164 24 230 51 189 76 348 234 423 421 28 69 60 224 55 260 -2 12 -9 -18
-16 -66z"/>
<path d="M0 1025 l0 -165 134 0 c106 0 136 3 146 15 16 19 17 112 2 127 -15
15 -15 31 0 46 14 14 11 111 -4 130 -7 8 -49 12 -144 12 l-134 0 0 -165z m228
68 l3 -33 -80 0 -81 0 0 35 0 36 78 -3 77 -3 3 -32z m2 -133 l0 -30 -80 0 -80
0 0 30 0 30 80 0 80 0 0 -30z"/>
<path d="M350 1024 l0 -165 33 3 32 3 0 103 c0 56 3 102 6 102 3 0 23 -25 43
-55 30 -46 41 -55 66 -55 25 0 36 9 66 55 20 30 40 55 43 55 3 0 6 -46 6 -102
l0 -103 33 -3 32 -3 0 165 0 166 -33 0 c-31 0 -39 -7 -87 -75 -29 -41 -56 -75
-60 -75 -4 0 -31 34 -60 75 -48 68 -56 75 -87 75 l-33 0 0 -166z"/>
<path d="M760 1074 l0 -116 41 -49 c34 -41 47 -49 74 -49 26 0 39 7 56 32 l23
31 26 -31 c41 -49 78 -44 129 17 l41 49 0 116 0 116 -30 0 -30 0 0 -97 c0 -88
-2 -99 -26 -131 l-27 -34 -23 28 c-21 26 -23 39 -24 132 l0 102 -35 0 -35 0 0
-102 c-1 -92 -3 -106 -24 -131 l-23 -28 -26 35 c-25 32 -27 42 -27 130 l0 96
-30 0 -30 0 0 -116z"/>
</g>
</svg>
