<?xml version="1.0" encoding="utf-8"?>
<!-- Generator: Adobe Illustrator 21.1.0, SVG Export Plug-In . SVG Version: 6.00 Build 0)  -->
<svg version="1.1" id="Слой_1" fill="#1a1943" xmlns="http://www.w3.org/2000/svg" xmlns:xlink="http://www.w3.org/1999/xlink" x="0px" y="0px"
	 viewBox="42.8 7.5 56.2 41.7" style="enable-background:new 42.8 7.5 56.2 41.7;" xml:space="preserve">
<path d="M99,8.2c0-0.4-0.3-0.7-0.7-0.7H43.4c-0.4,0-0.7,0.3-0.7,0.7v40.3c0,0.4,0.3,0.7,0.7,0.7h54.9c0.4,0,0.7-0.3,0.7-0.7V8.2z
	 M97.6,47.8H44.1V17.4h53.5V47.8z M97.6,16.1H44.1V8.8h53.5V16.1z"/>
<path d="M60.6,21.1H49.8c-0.4,0-0.7,0.3-0.7,0.7c0,0.4,0.3,0.7,0.7,0.7h10.8c0.4,0,0.7-0.3,0.7-0.7C61.2,21.4,60.9,21.1,60.6,21.1z"
	/>
<path d="M60.6,25.4H49.8c-0.4,0-0.7,0.3-0.7,0.7c0,0.4,0.3,0.7,0.7,0.7h10.8c0.4,0,0.7-0.3,0.7-0.7C61.2,25.7,60.9,25.4,60.6,25.4z"
	/>
<path d="M60.6,29.8H49.8c-0.4,0-0.7,0.3-0.7,0.7c0,0.4,0.3,0.7,0.7,0.7h10.8c0.4,0,0.7-0.3,0.7-0.7C61.2,30.1,60.9,29.8,60.6,29.8z"
	/>
<path d="M60.6,34.2H49.8c-0.4,0-0.7,0.3-0.7,0.7c0,0.4,0.3,0.7,0.7,0.7h10.8c0.4,0,0.7-0.3,0.7-0.7C61.2,34.5,60.9,34.2,60.6,34.2z"
	/>
<path d="M60.6,38.5H49.8c-0.4,0-0.7,0.3-0.7,0.7c0,0.4,0.3,0.7,0.7,0.7h10.8c0.4,0,0.7-0.3,0.7-0.7C61.2,38.8,60.9,38.5,60.6,38.5z"
	/>
<path d="M60.6,42.9H49.8c-0.4,0-0.7,0.3-0.7,0.7c0,0.4,0.3,0.7,0.7,0.7h10.8c0.4,0,0.7-0.3,0.7-0.7C61.2,43.2,60.9,42.9,60.6,42.9z"
	/>
<path d="M76.3,34.2H65.5c-0.4,0-0.7,0.3-0.7,0.7c0,0.4,0.3,0.7,0.7,0.7h10.8c0.4,0,0.7-0.3,0.7-0.7C76.9,34.5,76.6,34.2,76.3,34.2z"
	/>
<path d="M76.3,38.5H65.5c-0.4,0-0.7,0.3-0.7,0.7c0,0.4,0.3,0.7,0.7,0.7h10.8c0.4,0,0.7-0.3,0.7-0.7C76.9,38.8,76.6,38.5,76.3,38.5z"
	/>
<path d="M76.3,42.9H65.5c-0.4,0-0.7,0.3-0.7,0.7c0,0.4,0.3,0.7,0.7,0.7h10.8c0.4,0,0.7-0.3,0.7-0.7C76.9,43.2,76.6,42.9,76.3,42.9z"
	/>
<path d="M76.9,21.7c0-0.4-0.3-0.7-0.7-0.7H65.5c-0.4,0-0.7,0.3-0.7,0.7v8.7c0,0.4,0.3,0.7,0.7,0.7h10.8c0.4,0,0.7-0.3,0.7-0.7V21.7z
	 M75.6,29.8h-9.4v-7.4h9.4V29.8z"/>
<path d="M91.9,29.8H81.2c-0.4,0-0.7,0.3-0.7,0.7c0,0.4,0.3,0.7,0.7,0.7h10.8c0.4,0,0.7-0.3,0.7-0.7C92.6,30.1,92.3,29.8,91.9,29.8z"
	/>
<path d="M91.9,25.4H81.2c-0.4,0-0.7,0.3-0.7,0.7c0,0.4,0.3,0.7,0.7,0.7h10.8c0.4,0,0.7-0.3,0.7-0.7C92.6,25.7,92.3,25.4,91.9,25.4z"
	/>
<path d="M91.9,21.1H81.2c-0.4,0-0.7,0.3-0.7,0.7c0,0.4,0.3,0.7,0.7,0.7h10.8c0.4,0,0.7-0.3,0.7-0.7C92.6,21.4,92.3,21.1,91.9,21.1z"
	/>
<path d="M92.6,34.8c0-0.4-0.3-0.7-0.7-0.7H81.2c-0.4,0-0.7,0.3-0.7,0.7v8.7c0,0.4,0.3,0.7,0.7,0.7h10.8c0.4,0,0.7-0.3,0.7-0.7V34.8z
	 M91.3,42.9h-9.4v-7.4h9.4V42.9z"/>
<path d="M95.2,10.8c0-0.4-0.3-0.7-0.7-0.7H55.5c-0.4,0-0.7,0.3-0.7,0.7v3.4c0,0.4,0.3,0.7,0.7,0.7h39.1c0.4,0,0.7-0.3,0.7-0.7V10.8z
	 M93.9,13.5H56.2v-2.1h37.7V13.5z"/>
<path d="M47,12c-0.1-0.1-0.3-0.2-0.5-0.2S46.1,11.9,46,12c-0.1,0.1-0.2,0.3-0.2,0.5s0.1,0.3,0.2,0.5c0.3,0.3,0.7,0.2,0.9,0
	c0.1-0.1,0.2-0.3,0.2-0.5C47.1,12.3,47.1,12.1,47,12z"/>
<path d="M49.4,12c-0.1-0.1-0.3-0.2-0.5-0.2c-0.2,0-0.3,0.1-0.5,0.2c-0.1,0.1-0.2,0.3-0.2,0.5s0.1,0.3,0.2,0.5c0.3,0.3,0.7,0.2,0.9,0
	c0.1-0.1,0.2-0.3,0.2-0.5C49.6,12.3,49.5,12.1,49.4,12z"/>
<path d="M51.9,12c-0.1-0.1-0.3-0.2-0.5-0.2S51.1,11.9,51,12c-0.1,0.1-0.2,0.3-0.2,0.5s0.1,0.3,0.2,0.5c0.3,0.3,0.7,0.2,0.9,0
	c0.1-0.1,0.2-0.3,0.2-0.5C52.1,12.3,52.1,12.1,51.9,12z"/>
</svg>
