<?xml version="1.0" ?><!DOCTYPE svg  PUBLIC '-//W3C//DTD SVG 1.1//EN'  'http://www.w3.org/Graphics/SVG/1.1/DTD/svg11.dtd'><svg enable-background="new 0 0 24 24" height="24px" id="Layer_1" version="1.1" viewBox="0 0 24 24" width="24px" fill="#5092c8" xml:space="preserve" xmlns="http://www.w3.org/2000/svg" xmlns:xlink="http://www.w3.org/1999/xlink"><path d="M23,8h-3V5c0-0.6-0.4-1-1-1h-3V1c0-0.6-0.4-1-1-1H1C0.4,0,0,0.4,0,1v14c0,0.6,0.4,1,1,1h3v3c0,0.6,0.4,1,1,1h3v3  c0,0.6,0.4,1,1,1h14c0.6,0,1-0.4,1-1V9C24,8.4,23.6,8,23,8z M4,5v9H2V2h12v2H5C4.4,4,4,4.4,4,5z M8,9v9H6V6h12v2H9C8.4,8,8,8.4,8,9z   M22,22H10V10h12V22z"/></svg>