<?xml version="1.0" encoding="iso-8859-1"?>
<!-- Generator: Adobe Illustrator 21.1.0, SVG Export Plug-In . SVG Version: 6.00 Build 0)  -->
<svg version="1.1" fill="#5092c8" id="&#x421;&#x43B;&#x43E;&#x439;_1"
	 xmlns="http://www.w3.org/2000/svg" xmlns:xlink="http://www.w3.org/1999/xlink" x="0px" y="0px" viewBox="0 0 409.6 409.597"
	 style="enable-background:new 0 0 409.6 409.597;" xml:space="preserve">
<g>
	<path d="M388.633,161.8l-28.75-4.875c-2.992-9.668-6.844-18.996-11.551-27.894l16.941-23.703
		c7.188-10.094,6.079-23.871-2.738-32.598l-25.496-25.5c-4.793-4.789-11.125-7.441-17.883-7.441c-5.304,0-10.355,1.625-14.633,4.703
		l-23.785,16.941c-9.242-4.875-18.91-8.898-28.922-11.89l-4.793-28.411C244.973,8.898,234.445,0,222.039,0h-36.023
		c-12.407,0-22.93,8.898-24.985,21.132l-4.961,29.094c-9.582,2.996-18.91,6.93-27.808,11.723L104.73,45.007
		c-4.277-3.082-9.41-4.707-14.714-4.707c-6.762,0-13.18,2.653-17.883,7.446L46.547,73.242c-8.727,8.73-9.926,22.504-2.738,32.601
		l17.113,24.043c-4.707,8.985-8.473,18.313-11.379,27.981l-28.41,4.789C8.898,164.71,0,175.234,0,187.644v36.02
		c0,12.41,8.898,22.933,21.133,24.988l29.094,4.961c2.996,9.582,6.929,18.91,11.722,27.808l-16.855,23.446
		c-7.188,10.097-6.078,23.871,2.738,32.597l25.496,25.5c4.793,4.793,11.125,7.446,17.883,7.446c5.305,0,10.355-1.629,14.633-4.707
		l24.043-17.114c8.64,4.536,17.711,8.215,27.039,11.125l4.793,28.75c2.051,12.235,12.578,21.133,24.984,21.133h36.106
		c12.41,0,22.933-8.898,24.984-21.133l4.879-28.75c9.668-2.996,18.996-6.847,27.894-11.554l23.7,16.945
		c4.281,3.078,9.414,4.703,14.718,4.703c6.762,0,13.09-2.652,17.883-7.441l25.5-25.5c8.727-8.727,9.926-22.504,2.738-32.602
		L348.16,280.48c4.707-8.984,8.645-18.312,11.555-27.895l28.75-4.792c12.234-2.051,21.133-12.575,21.133-24.985v-36.019
		C409.77,174.378,400.871,163.855,388.633,161.8L388.633,161.8z M386.668,222.808c0,1.113-0.773,2.055-1.883,2.227l-35.937,5.988
		c-4.536,0.77-8.129,4.109-9.243,8.473c-3.25,12.578-8.214,24.64-14.886,35.851c-2.313,3.934-2.141,8.813,0.511,12.578
		l21.137,29.774c0.598,0.859,0.512,2.14-0.258,2.91l-25.5,25.5c-0.597,0.598-1.195,0.684-1.625,0.684
		c-0.511,0-0.941-0.172-1.285-0.426l-29.687-21.137c-3.68-2.652-8.645-2.824-12.578-0.512
		c-11.211,6.672-23.274,11.637-35.852,14.887c-4.449,1.113-7.789,4.793-8.473,9.242l-6.074,35.938
		c-0.172,1.109-1.113,1.883-2.226,1.883h-36.02c-1.113,0-2.055-0.774-2.227-1.883l-5.988-35.938
		c-0.769-4.535-4.109-8.129-8.472-9.242c-12.235-3.164-24.043-8.043-35.082-14.375c-1.797-1.027-3.848-1.539-5.817-1.539
		c-2.312,0-4.707,0.684-6.676,2.137l-29.945,21.308c-0.43,0.254-0.855,0.426-1.285,0.426c-0.34,0-1.027-0.086-1.625-0.684
		l-25.5-25.5c-0.77-0.769-0.856-1.964-0.254-2.906l21.047-29.519c2.652-3.766,2.824-8.731,0.515-12.664
		c-6.675-11.125-11.808-23.188-15.062-35.766c-1.195-4.367-4.789-7.703-9.238-8.473l-36.196-6.16
		c-1.113-0.172-1.882-1.113-1.882-2.226v-36.02c0-1.113,0.769-2.055,1.882-2.226l35.68-5.989c4.535-0.769,8.215-4.109,9.328-8.558
		c3.164-12.578,8.043-24.727,14.633-35.938c2.309-3.933,2.051-8.812-0.602-12.492L62.719,92.496
		c-0.598-0.856-0.512-2.141,0.258-2.911l25.496-25.5c0.601-0.597,1.199-0.683,1.625-0.683c0.515,0,0.941,0.172,1.285,0.43
		l29.519,21.046c3.766,2.653,8.727,2.825,12.664,0.516c11.125-6.676,23.188-11.809,35.766-15.059
		c4.363-1.199,7.699-4.792,8.473-9.242l6.16-36.195c0.172-1.113,1.109-1.883,2.223-1.883h36.023c1.113,0,2.055,0.77,2.227,1.883
		l5.988,35.68c0.769,4.535,4.105,8.215,8.554,9.328c12.922,3.25,25.243,8.301,36.708,15.058c3.937,2.313,8.816,2.141,12.578-0.511
		l29.519-21.223c0.43-0.254,0.856-0.426,1.285-0.426c0.344,0,1.028,0.086,1.625,0.684l25.5,25.5c0.77,0.769,0.856,1.969,0.254,2.906
		l-21.133,29.691c-2.652,3.68-2.824,8.645-0.511,12.579c6.672,11.211,11.636,23.273,14.886,35.851
		c1.114,4.449,4.793,7.789,9.243,8.473l35.937,6.074c1.109,0.172,1.879,1.113,1.879,2.227v36.019H386.668z M386.668,222.808"/>
	<path d="M204.84,116.367c-48.77,0-88.387,39.617-88.387,88.39c0,48.77,39.617,88.387,88.387,88.387
		c48.773,0,88.39-39.617,88.39-88.387C293.23,155.984,253.613,116.367,204.84,116.367L204.84,116.367z M204.84,270.043
		c-36.02,0-65.285-29.266-65.285-65.286c0-36.023,29.265-65.289,65.285-65.289c36.023,0,65.289,29.266,65.289,65.289
		C270.129,240.777,240.863,270.043,204.84,270.043L204.84,270.043z M204.84,270.043"/>
</g>
</svg>
