<?xml version="1.0" encoding="iso-8859-1"?>
<!-- Generator: Adobe Illustrator 21.1.0, SVG Export Plug-In . SVG Version: 6.00 Build 0)  -->
<svg version="1.1" fill="#5092c8" id="&#x421;&#x43B;&#x43E;&#x439;_1"
	 xmlns="http://www.w3.org/2000/svg" xmlns:xlink="http://www.w3.org/1999/xlink" x="0px" y="0px" viewBox="0 0 368.88 314.88"
	 style="enable-background:new 0 0 368.88 314.88;" xml:space="preserve">
<g>
	<path d="M90.809,111.026h187.339c7.301,0,13.016-5.715,13.016-13.02c0-7.301-5.715-13.016-13.016-13.016H90.809
		c-7.301,0-13.016,5.715-13.016,13.016C77.793,105.311,83.508,111.026,90.809,111.026L90.809,111.026z M90.809,111.026"/>
	<g>
		<defs>
			<rect id="SVGID_1_" width="368.88" height="314.88"/>
		</defs>
		<clipPath id="SVGID_2_">
			<use xlink:href="#SVGID_1_"  style="overflow:visible;"/>
		</clipPath>
		<path style="clip-path:url(#SVGID_2_);" d="M90.809,173.893h187.339c7.301,0,13.016-5.715,13.016-13.016
			c0-7.305-5.715-13.019-13.016-13.019H90.809c-7.301,0-13.016,5.714-13.016,13.019C77.793,168.178,83.508,173.893,90.809,173.893
			L90.809,173.893z M90.809,173.893"/>
		<path style="clip-path:url(#SVGID_2_);" d="M13.02,258.037h41.91v42.864c0,5.082,2.859,9.527,7.304,11.75
			c1.907,0.953,3.809,1.269,5.715,1.269c2.86,0,5.715-0.953,7.938-2.539l69.855-53.027h210.196c7.304,0,13.019-5.715,13.019-13.02
			V13.865c0-7.304-5.715-13.019-13.019-13.019H13.02C5.715,0.846,0,6.561,0,13.865v231.153C0,252.322,6.031,258.037,13.02,258.037
			L13.02,258.037z M26.035,26.881h316.567v205.117H141.297c-2.859,0-5.715,0.953-7.938,2.543l-52.39,40.008v-29.531
			c0-7.301-5.715-13.02-13.02-13.02H26.035V26.881z M26.035,26.881"/>
	</g>
</g>
</svg>
