<?xml version="1.0" encoding="iso-8859-1"?>
<!-- Generator: Adobe Illustrator 18.1.1, SVG Export Plug-In . SVG Version: 6.00 Build 0)  -->
<svg xmlns="http://www.w3.org/2000/svg" xmlns:xlink="http://www.w3.org/1999/xlink" version="1.1" id="Capa_1" x="0px" y="0px" viewBox="0 0 480.016 480.016" style="enable-background:new 0 0 480.016 480.016;" xml:space="preserve" width="512px" height="512px">
<g>
	<g>
		<g>
			<path d="M385.895,292.612c-15.111,0-27.694,11.014-29.872,25.906H272.81     c-2.577-8.819-10.827-15.087-20.102-15.087h-55.461c-9.275,0-17.509,6.267-20.102,15.087h-69.743     c-1.618-15.493-14.64-27.426-30.344-27.426c-16.883,0-30.62,13.745-30.62,30.653c0,16.891,13.729,30.628,30.62,30.628     c14.607,0,26.938-10.161,29.889-24.394h69.727c1.699,10.047,10.291,17.436,20.573,17.436h55.461     c10.291,0,18.866-7.381,20.565-17.436h82.822c2.43,14.566,14.965,25.337,29.791,25.337c16.753,0,30.352-13.599,30.352-30.32     C416.255,306.227,402.648,292.612,385.895,292.612z M385.895,344.041c-11.632,0-21.077-9.454-21.077-21.061     c0-11.656,9.445-21.102,21.077-21.102c11.624,0,21.086,9.445,21.086,21.102C406.98,334.588,397.519,344.041,385.895,344.041z      M187.208,318.51c2.057-3.552,5.828-5.804,10.039-5.804h55.461c4.186,0,7.966,2.252,10.031,5.804H187.208z M252.716,336.116     h-55.461c-5.105,0-9.551-3.39-11.079-8.153h77.628C262.276,332.726,257.813,336.116,252.716,336.116z M77.058,300.375     c11.77,0,21.362,9.584,21.362,21.362c0,11.77-9.592,21.337-21.362,21.337s-21.338-9.567-21.338-21.337     C55.72,309.95,65.288,300.375,77.058,300.375z" fill="#FFFFFF"/>
		</g>
		<g>
			<g>
				<path d="M427.822,272.047l52.194-5.373l-0.821-4.877c-5.771-34.4-0.496-47.642-0.285-48.137l0.878-1.91      l-0.862-1.926c-0.707-1.569-18.509-38.627-123.644-38.627l-4.373,0.016c-9.307-8.502-53.51-44.512-135.601-44.512      c-60.257,0-126.221,19.761-196.061,58.745l-2.934,1.674l0.667,3.308c0.545,2.715,1.333,11.486-2.122,15.704      c-1.447,1.772-3.536,2.585-6.584,2.585H4.502l-0.772,3.69c-4.641,22.321-7.129,44.797,6.007,57.932l1.357,1.374h37.326      l-1.244-5.633c-0.61-2.796-0.91-5.373-0.91-7.934c0-19.663,16.013-35.668,35.684-35.668c19.663,0,35.676,16.005,35.676,35.668      c0,2.609-0.309,5.267-0.91,7.893l-1.292,5.674h239.858l-1.301-5.674c-0.593-2.617-0.902-5.275-0.902-7.893      c0-19.013,17.688-35.668,37.847-35.668c13.9,0,22.882,7.145,27.97,13.152c7.503,8.876,11.502,21.086,9.941,30.401      L427.822,272.047z M172.91,186.03H51.274l18.85-8.836c0.415-0.179,41.464-19.135,97.283-29.881l5.511-1.065v39.781H172.91z       M184.501,186.03v-41.651l3.975-0.545c9.12-1.349,18.484-2.008,27.865-2.008c68.069,0,118.864,35.432,119.376,35.782      l11.933,8.429H184.501V186.03z" fill="#FFFFFF"/>
			</g>
		</g>
	</g>
</g>
<g>
</g>
<g>
</g>
<g>
</g>
<g>
</g>
<g>
</g>
<g>
</g>
<g>
</g>
<g>
</g>
<g>
</g>
<g>
</g>
<g>
</g>
<g>
</g>
<g>
</g>
<g>
</g>
<g>
</g>
</svg>
