<?xml version="1.0" encoding="utf-8"?>
<!-- Generator: Adobe Illustrator 22.0.1, SVG Export Plug-In . SVG Version: 6.00 Build 0)  -->
<svg version="1.1"
	 id="svg2" inkscape:version="0.91 r13725" sodipodi:docname="logo.svg" xmlns:cc="http://creativecommons.org/ns#" xmlns:dc="http://purl.org/dc/elements/1.1/" xmlns:inkscape="http://www.inkscape.org/namespaces/inkscape" xmlns:rdf="http://www.w3.org/1999/02/22-rdf-syntax-ns#" xmlns:sodipodi="http://sodipodi.sourceforge.net/DTD/sodipodi-0.dtd" xmlns:svg="http://www.w3.org/2000/svg"
	 xmlns="http://www.w3.org/2000/svg" xmlns:xlink="http://www.w3.org/1999/xlink" x="0px" y="0px" viewBox="0 0 572.8 331.5"
	 style="enable-background:new 0 0 572.8 331.5;" xml:space="preserve">
<style type="text/css">
	.st0{display:none;fill:#18394E;}
	.st1{fill:#339CD0;}
	.st2{fill:#18394E;}
	.st3{fill:#0088D4;}
	.st4{fill:#ED3936;}
	.st5{fill:#FCFCFC;}
	.st6{fill:#2D357E;}
</style>
<sodipodi:namedview  bordercolor="#666666" borderopacity="1.0" id="base" inkscape:current-layer="layer1" inkscape:cx="281.32181" inkscape:cy="510.09143" inkscape:document-units="px" inkscape:pageopacity="0.0" inkscape:pageshadow="2" inkscape:window-height="705" inkscape:window-maximized="1" inkscape:window-width="1366" inkscape:window-x="-8" inkscape:window-y="-8" inkscape:zoom="0.64" pagecolor="#ffffff" showgrid="false">
	</sodipodi:namedview>
<g id="layer1" inkscape:groupmode="layer" inkscape:label="Layer 1">
	<path id="path4147" inkscape:connector-curvature="0" class="st0" d="M285.1,330.5v-1l2.4-0.1c28.1-0.8,54.4-8.3,78.6-22.5
		c27.6-16.2,50.1-40.5,64.2-69.4c10.5-21.6,16.1-44.4,16.5-68.2l0.1-3.2h1h1v0.9c0,1.6-0.2,6.8-0.4,9.2
		c-2.9,45.4-24.1,87.3-59.1,116.6c-23.4,19.6-52.2,32.5-82.5,36.9c-5.8,0.8-12.1,1.4-17.3,1.6c-0.9,0-2.3,0.1-3.1,0.1l-1.4,0.1
		L285.1,330.5L285.1,330.5z M0.1,226.2v-36.2H29H58l3.5,3.6l3.5,3.6v10.9v10.9l-3.5,3.5l-3.5,3.5l2,2.1c1.1,1.1,2.7,2.8,3.5,3.6
		l1.5,1.5v10.9v10.9l-3.6,3.6l-3.6,3.6H29H0.1L0.1,226.2L0.1,226.2z M50.6,239.2l0-7.2l-18.1,0l-18.1,0v7.2v7.2h18.1h18.1
		L50.6,239.2L50.6,239.2z M50.6,210.2l0-7.3H32.6H14.5v7.3v7.3l18.1,0l18.1,0L50.6,210.2L50.6,210.2z M76.9,224.7v-36.2l7.3,0l7.3,0
		l12.6,17.5c6.9,9.6,12.6,17.5,12.6,17.5c0,0,5.8-7.9,12.8-17.5l12.8-17.4l7,0l7,0v36.2v36.2H149h-7.3l0-24.4l0-24.4l-9.4,13.9
		l-9.4,13.9l-6.1,0l-6.1,0l-9.6-13.9l-9.6-13.9l0,24.4l0,24.4h-7.3h-7.3L76.9,224.7L76.9,224.7z M176.1,250.1l-9-10.8v-25.4v-25.4
		h7.2h7.2v21.7v21.7l5.5,7.2c3,3.9,5.5,7.2,5.6,7.2s2.5-3.2,5.4-7.1l5.3-7.1v-21.8v-21.8h7.3h7.3v21.8V232l5.5,7.2l5.5,7.2l5.4-7.2
		l5.4-7.2v-21.7v-21.7h7.2h7.2v25.4v25.4l-9,10.8l-9,10.8h-7.3h-7.3l-1-1.2c-0.6-0.7-3-3.6-5.5-6.5l-4.4-5.2l-5.4,6.5l-5.4,6.5
		l-7.3,0l-7.3,0L176.1,250.1L176.1,250.1z M117.3,164.5c0-1.7,0.2-6.8,0.4-9.2c2.9-45.4,24.1-87.3,59.1-116.6
		c25.7-21.6,57.8-34.9,91.3-37.9c4.5-0.4,10.5-0.7,14.6-0.7h1.8v1v1L280.4,2c-28.4,0.4-55.5,8-80.3,22.5
		C172.5,40.7,150,65,135.9,93.9c-10.5,21.6-16.1,44.4-16.5,68.2l-0.1,3.3h-1h-1L117.3,164.5L117.3,164.5z M343.6,115.1v-29h-12.3
		h-12.7v-7.5v-7.5h32.5h32.5v7.5v7.5h-12h-13v29v29h-7.5h-7.5V115.1z M418.3,107.7V71.5l7.3,0l7.3,0L445.4,89
		c6.9,9.6,12.6,17.5,12.6,17.5c0,0,5.8-7.9,12.8-17.5l12.8-17.4l7,0l7,0v36.2v36.2h-7.3h-7.3l0-24.4l0-24.4l-9.4,13.9l-9.4,13.9
		l-6.1,0l-6.1,0l-9.6-13.9l-9.6-13.9l0,24.4l0,24.4h-7.3h-7.3L418.3,107.7L418.3,107.7z M511.3,107.7V71.5h30.7h30.7v7.3V86h-23.5
		h-23.5v7.3v7.3h21.7h21.7v7.2v7.2h-21.7h-21.7v7.2v7.2h23.5h23.5v7.3v7.3h-30.7h-30.7V107.7L511.3,107.7z M391.9,107.7V71.5h7.3
		h7.3v36.2v36.2h-7.3h-7.3V107.7z"/>
	<path id="Фигура_1_копия" class="st1" d="M285.3,278.8V165.7H397c0,0,4.4,44.3-33.4,81.1
		C326,283.3,285.3,278.8,285.3,278.8z"/>
	<path id="Фигура_1_копия_1_" class="st1" d="M285,52.3v113.1H173.3c0,0-4.4-44.3,33.4-81.1
		C244.3,47.8,285,52.3,285,52.3z"/>
</g>
<path class="st2" d="M285.1,330.5v-1l2.4-0.1c28.1-0.8,54.4-8.3,78.6-22.5c27.6-16.2,50.1-40.5,64.2-69.4
	c10.5-21.6,16.1-44.4,16.5-68.2l0.1-3.2h1h1v0.9c0,1.6-0.2,6.8-0.4,9.2c-2.9,45.4-24.1,87.3-59.1,116.6
	c-23.4,19.6-52.2,32.5-82.5,36.9c-5.8,0.8-12.1,1.4-17.3,1.6c-0.9,0-2.3,0.1-3.1,0.1l-1.4,0.1L285.1,330.5L285.1,330.5z"/>
<path class="st2" d="M0,224.7v-36.2h28.9h28.9l3.5,3.6l3.5,3.6v10.9v10.9l-3.5,3.5l-3.5,3.5l2,2.1c1.1,1.1,2.7,2.8,3.5,3.6l1.5,1.5
	v10.9v10.9l-3.6,3.6l-3.6,3.6H28.9H0L0,224.7L0,224.7z"/>
<path class="st2" d="M76.9,224.7v-36.2l7.3,0l7.3,0l12.6,17.5c6.9,9.6,12.6,17.5,12.6,17.5c0,0,5.8-7.9,12.8-17.5l12.8-17.4l7,0l7,0
	v36.2v36.2H149h-7.3l0-24.4l0-24.4l-9.4,13.9l-9.4,13.9l-6.1,0l-6.1,0l-9.6-13.9l-9.6-13.9l0,24.4l0,24.4h-7.3h-7.3L76.9,224.7
	L76.9,224.7z"/>
<path class="st2" d="M176.1,250.1l-9-10.8v-25.4v-25.4h7.2h7.2v21.7v21.7l5.5,7.2c3,3.9,5.5,7.2,5.6,7.2s2.5-3.2,5.4-7.1l5.3-7.1
	v-21.8v-21.8h7.3h7.3v21.8V232l5.5,7.2l5.5,7.2l5.4-7.2l5.4-7.2v-21.7v-21.7h7.2h7.2v25.4v25.4l-9,10.8l-9,10.8h-7.3h-7.3l-1-1.2
	c-0.6-0.7-3-3.6-5.5-6.5l-4.4-5.2l-5.4,6.5l-5.4,6.5l-7.3,0l-7.3,0L176.1,250.1L176.1,250.1z"/>
<path class="st2" d="M117.3,164.5c0-1.7,0.2-6.8,0.4-9.2c2.9-45.4,24.1-87.3,59.1-116.6c25.7-21.6,57.8-34.9,91.3-37.9
	c4.5-0.4,10.5-0.7,14.6-0.7h1.8v1v1L280.4,2c-28.4,0.4-55.5,8-80.3,22.5C172.5,40.7,150,65,135.9,93.9
	c-10.5,21.6-16.1,44.4-16.5,68.2l-0.1,3.3h-1h-1L117.3,164.5L117.3,164.5z"/>
<polygon class="st2" points="343.6,115.1 343.6,86.1 331.3,86.1 318.6,86.1 318.6,78.6 318.6,71.1 351.1,71.1 383.6,71.1 
	383.6,78.6 383.6,86.1 371.6,86.1 358.6,86.1 358.6,115.1 358.6,144.1 351.1,144.1 343.6,144.1 "/>
<g>
	<path class="st3" d="M418.3,107.7V71.5l7.3,0l7.3,0L445.4,89c6.9,9.6,12.6,17.5,12.6,17.5c0,0,5.8-7.9,12.8-17.5l12.8-17.4l7,0l7,0
		v36.2v36.2h-7.3h-7.3l0-24.4l0-24.4l-9.4,13.9l-9.4,13.9l-6.1,0l-6.1,0l-9.6-13.9l-9.6-13.9l0,24.4l0,24.4h-7.3h-7.3L418.3,107.7
		L418.3,107.7z"/>
</g>
<polygon class="st4" points="511.3,107.7 511.3,71.5 542.1,71.5 572.8,71.5 572.8,78.8 572.8,86 549.3,86 525.8,86 525.8,93.3 
	525.8,100.6 547.5,100.6 569.1,100.6 569.1,107.8 569.1,115 547.5,115 525.8,115 525.8,122.2 525.8,129.4 549.3,129.4 572.8,129.4 
	572.8,136.7 572.8,143.9 542.1,143.9 511.3,143.9 511.3,107.7 "/>
<polygon class="st2" points="391.9,107.7 391.9,71.5 399.2,71.5 406.4,71.5 406.4,107.7 406.4,143.9 399.2,143.9 391.9,143.9 "/>
<rect x="14.5" y="203" class="st5" width="36.1" height="14.6"/>
<rect x="14.5" y="231.9" class="st5" width="36.1" height="14.6"/>
<polygon class="st6" points="497.7,107.6 497.7,71.4 505,71.4 512.2,71.4 512.2,107.6 512.2,143.8 505,143.8 497.7,143.8 "/>
</svg>
