<?xml version="1.0" encoding="iso-8859-1"?>
<!-- Generator: Adobe Illustrator 21.1.0, SVG Export Plug-In . SVG Version: 6.00 Build 0)  -->
<svg version="1.1" fill="#4289c2" id="Layer_1" xmlns="http://www.w3.org/2000/svg" xmlns:xlink="http://www.w3.org/1999/xlink" x="0px" y="0px"
	 viewBox="-49 199.83 512 394.341" style="enable-background:new -49 199.83 512 394.341;" xml:space="preserve">
<path d="M-28.318,376.318h470.636C453.74,376.318,463,385.577,463,397c0,11.422-9.26,20.682-20.682,20.682H-28.318
	C-39.741,417.683-49,408.423-49,397C-49,385.577-39.741,376.318-28.318,376.318z"/>
<path d="M265.829,199.83c5.293,0,10.587,2.019,14.625,6.058l176.488,176.488c8.077,8.077,8.077,21.172,0,29.249L280.454,588.113
	c-8.077,8.076-21.172,8.076-29.249,0c-8.077-8.077-8.077-21.172,0-29.249L413.068,397L251.205,235.137
	c-8.077-8.077-8.077-21.172,0-29.249C255.243,201.848,260.536,199.83,265.829,199.83z"/>
</svg>
