<?xml version="1.0" encoding="iso-8859-1"?>
<!-- Generator: Adobe Illustrator 21.1.0, SVG Export Plug-In . SVG Version: 6.00 Build 0)  -->
<svg version="1.1" fill="#fff" id="Layer_1" xmlns="http://www.w3.org/2000/svg" xmlns:xlink="http://www.w3.org/1999/xlink" x="0px" y="0px"
	 viewBox="-49 199.83 512 394.341" style="enable-background:new -49 199.83 512 394.341;" xml:space="preserve">
<path d="M442.318,417.682H-28.318C-39.74,417.682-49,408.423-49,397c0-11.422,9.26-20.682,20.682-20.682h470.636
	c11.423,0,20.682,9.26,20.682,20.682C463,408.423,453.741,417.682,442.318,417.682z"/>
<path d="M148.171,594.171c-5.293,0-10.587-2.019-14.625-6.058L-42.942,411.625c-8.077-8.077-8.077-21.172,0-29.249l176.488-176.488
	c8.077-8.076,21.172-8.076,29.249,0c8.077,8.077,8.077,21.172,0,29.249L0.931,397l161.864,161.864
	c8.077,8.077,8.077,21.172,0,29.249C158.757,592.152,153.463,594.171,148.171,594.171z"/>
</svg>
