<?xml version="1.0" encoding="iso-8859-1"?>
<!-- Generator: Adobe Illustrator 21.1.0, SVG Export Plug-In . SVG Version: 6.00 Build 0)  -->
<svg version="1.1" id="&#x421;&#x43B;&#x43E;&#x439;_1"
	 xmlns="http://www.w3.org/2000/svg" xmlns:xlink="http://www.w3.org/1999/xlink" x="0px" y="0px" viewBox="0 0 153.2 153.204"
	 style="enable-background:new 0 0 153.2 153.204;" xml:space="preserve">
<g>
	<g>
		<path style="fill:#ddd;" d="M90.549,90.548l48.7,0.003c7.706,0,13.953-6.246,13.951-13.951
			c0.001-7.699-6.25-13.95-13.948-13.948l-48.707,0.003l0.003-48.707C90.55,6.249,84.3,0,76.601,0
			c-7.707,0.001-13.953,6.247-13.952,13.951l0.001,48.698H13.951C6.244,62.65-0.002,68.897,0,76.6
			c-0.003,3.853,1.562,7.341,4.085,9.863c2.521,2.521,6.012,4.09,9.863,4.084l48.701,0.004v48.703
			c-0.001,3.853,1.563,7.339,4.086,9.862c2.523,2.523,6.012,4.089,9.862,4.087c7.706,0,13.953-6.248,13.951-13.952V90.548z
			 M90.549,90.548"/>
	</g>
</g>
</svg>
