<?xml version="1.0" encoding="iso-8859-1"?>
<!-- Generator: Adobe Illustrator 21.1.0, SVG Export Plug-In . SVG Version: 6.00 Build 0)  -->
<svg version="1.1" id="Layer_1" xmlns="http://www.w3.org/2000/svg" xmlns:xlink="http://www.w3.org/1999/xlink" x="0px" y="0px"
	 viewBox="49.75 7.697 43.064 43.094" style="enable-background:new 49.75 7.697 43.064 43.094;" xml:space="preserve">
<g>
	<g>
		<g>
			<path style="fill-rule:evenodd;clip-rule:evenodd;fill:#12B0F1;" d="M75.61,16.732c-1.128-1.131-2.959-1.131-4.087,0L70.5,17.755
				L56.188,32.082l0.005,0.004l-0.453,0.451c0,0-1.436,1.449-4.685,11.931c-0.022,0.074-0.045,0.146-0.068,0.222
				c-0.058,0.188-0.117,0.379-0.175,0.571c-0.052,0.172-0.105,0.345-0.157,0.521c-0.045,0.147-0.09,0.294-0.135,0.445
				c-0.103,0.343-0.208,0.692-0.315,1.053c-0.233,0.792-0.803,2.578-0.158,3.223c0.621,0.623,2.424,0.076,3.214-0.158
				c0.358-0.106,0.706-0.21,1.045-0.313c0.158-0.048,0.311-0.094,0.463-0.142c0.165-0.05,0.331-0.1,0.493-0.149
				c0.202-0.063,0.402-0.125,0.6-0.186c0.06-0.02,0.118-0.036,0.175-0.055c9.973-3.105,11.764-4.563,11.913-4.695
				c0-0.001,0-0.001,0.003-0.003c0.004-0.004,0.01-0.01,0.01-0.01l0.46-0.463l0.032,0.032l14.31-14.326v-0.002l1.023-1.022
				c1.128-1.131,1.128-2.963,0-4.094L75.61,16.732z M66.315,42.943c-0.013,0.009-0.027,0.02-0.047,0.031
				c-0.01,0.006-0.021,0.014-0.033,0.021c-0.013,0.008-0.025,0.017-0.04,0.025c-0.014,0.008-0.026,0.016-0.039,0.022
				c-0.478,0.285-1.873,1.021-5.264,2.249c-0.398,0.142-0.829,0.295-1.281,0.451l-4.82-4.824c0.158-0.455,0.311-0.891,0.453-1.29
				c1.226-3.405,1.961-4.808,2.244-5.282c0.008-0.012,0.012-0.021,0.02-0.033c0.01-0.017,0.018-0.031,0.027-0.045
				c0.008-0.011,0.013-0.023,0.02-0.032c0.01-0.018,0.023-0.034,0.03-0.048l0.353-0.354l8.739,8.747L66.315,42.943z M91.966,16.732
				l-8.177-8.187c-1.131-1.13-2.959-1.13-4.09,0l-2.043,2.047c-1.131,1.131-1.131,2.962,0,4.093l8.177,8.186
				c1.13,1.13,2.961,1.13,4.089,0l2.044-2.047C93.096,19.696,93.096,17.863,91.966,16.732L91.966,16.732z M91.966,16.732"/>
		</g>
	</g>
</g>
</svg>
