<?xml version="1.0" encoding="iso-8859-1"?>
<!-- Generator: Adobe Illustrator 21.1.0, SVG Export Plug-In . SVG Version: 6.00 Build 0)  -->
<svg version="1.1" id="&#x421;&#x43B;&#x43E;&#x439;_1"
	 xmlns="http://www.w3.org/2000/svg" xmlns:xlink="http://www.w3.org/1999/xlink" x="0px" y="0px" viewBox="0 0 188.602 128.592"
	 style="enable-background:new 0 0 188.602 128.592;" xml:space="preserve">
<g>
	<g>
		<path style="fill:#12B0F1;" d="M94.301,0C51.438,0,14.575,26.574,0,64.296c14.575,37.72,51.438,64.296,94.301,64.296
			s79.727-26.576,94.301-64.296C174.027,26.574,137.164,0,94.301,0L94.301,0z M94.301,107.16c-24.004,0-42.863-18.861-42.863-42.863
			c0-24.006,18.859-42.864,42.863-42.864c24.003,0,42.863,18.858,42.863,42.864C137.164,88.298,118.304,107.16,94.301,107.16
			L94.301,107.16z M94.301,38.577c-14.575,0-25.719,11.145-25.719,25.719c0,14.572,11.144,25.718,25.719,25.718
			c14.573,0,25.719-11.146,25.719-25.718C120.02,49.722,108.874,38.577,94.301,38.577L94.301,38.577z M94.301,38.577"/>
	</g>
</g>
</svg>
