<?xml version="1.0" encoding="iso-8859-1"?>
<!-- Generator: Adobe Illustrator 21.1.0, SVG Export Plug-In . SVG Version: 6.00 Build 0)  -->
<svg version="1.1" fill="#b7deea" id="&#x421;&#x43B;&#x43E;&#x439;_1"
	 xmlns="http://www.w3.org/2000/svg" xmlns:xlink="http://www.w3.org/1999/xlink" x="0px" y="0px" viewBox="0 0 409.602 365.699"
	 style="enable-background:new 0 0 409.602 365.699;" xml:space="preserve">
<g>
	<path d="M397.488,165.258c-24.691-61.407-91.355-92.114-200.004-92.114h-51.199V14.633c0-3.965-1.449-7.395-4.344-10.289
		C139.047,1.449,135.621,0,131.656,0s-7.39,1.449-10.285,4.344L4.344,121.371C1.449,124.269,0,127.695,0,131.656
		c0,3.965,1.449,7.391,4.344,10.285l117.027,117.031c2.899,2.895,6.324,4.348,10.285,4.348s7.391-1.453,10.285-4.348
		c2.899-2.894,4.344-6.324,4.344-10.285v-58.519h51.199c14.93,0,28.301,0.457,40.11,1.371c11.808,0.914,23.547,2.551,35.199,4.918
		c11.66,2.359,21.793,5.594,30.406,9.715c8.606,4.117,16.645,9.41,24.113,15.883c7.469,6.48,13.563,14.171,18.29,23.089
		c4.722,8.914,8.418,19.461,11.086,31.653c2.664,12.191,4,25.984,4,41.371c0,8.379-0.383,17.754-1.141,28.113
		c0,0.91-0.192,2.703-0.574,5.371c-0.379,2.668-0.571,4.684-0.571,6.055c0,2.281,0.649,4.187,1.942,5.711
		c1.297,1.523,3.09,2.281,5.375,2.281c2.437,0,4.57-1.289,6.398-3.883c1.063-1.371,2.051-3.047,2.973-5.031
		c0.914-1.977,1.945-4.262,3.082-6.855c1.148-2.59,1.945-4.411,2.402-5.481c19.348-43.422,29.028-77.781,29.028-103.078
		C409.598,211.051,405.562,185.676,397.488,165.258L397.488,165.258z M397.488,165.258"/>
</g>
</svg>
