<?xml version="1.0" encoding="iso-8859-1"?>
<!-- Generator: Adobe Illustrator 21.1.0, SVG Export Plug-In . SVG Version: 6.00 Build 0)  -->
<svg version="1.1" fill="#b7deea" id="&#x421;&#x43B;&#x43E;&#x439;_1"
	 xmlns="http://www.w3.org/2000/svg" xmlns:xlink="http://www.w3.org/1999/xlink" x="0px" y="0px" viewBox="0 0 409.92 410.88"
	 style="enable-background:new 0 0 409.92 410.88;" xml:space="preserve">
<g>
	<g>
		<defs>
			<rect id="SVGID_1_" width="409.92" height="410.88"/>
		</defs>
		<clipPath id="SVGID_2_">
			<use xlink:href="#SVGID_1_"  style="overflow:visible;"/>
		</clipPath>
		<path style="clip-path:url(#SVGID_2_);fill-rule:evenodd;clip-rule:evenodd;" d="M408.309,182.379
			c-0.649-5.758-7.364-10.082-13.168-10.082c-18.766,0-35.422-11.024-42.407-28.067c-7.136-17.453-2.535-37.812,11.454-50.644
			c4.402-4.024,4.937-10.762,1.246-15.441c-9.606-12.2-20.524-23.215-32.446-32.766c-4.668-3.746-11.515-3.227-15.566,1.258
			c-12.207,13.519-34.133,18.543-51.078,11.472c-17.633-7.418-28.75-25.285-27.664-44.464c0.359-6.024-4.043-11.262-10.051-11.961
			c-15.297-1.77-30.731-1.825-46.07-0.122c-5.942,0.657-10.344,5.77-10.145,11.719c0.668,18.989-10.582,36.543-28.043,43.696
			c-16.738,6.839-38.512,1.855-50.695-11.543c-4.028-4.414-10.766-4.957-15.457-1.301c-12.274,9.633-23.438,20.66-33.129,32.758
			c-3.781,4.703-3.227,11.519,1.219,15.566c14.253,12.906,18.859,33.441,11.453,51.098c-7.071,16.836-24.551,27.683-44.563,27.683
			c-6.492-0.207-11.117,4.153-11.828,10.055c-1.801,15.387-1.824,31.062-0.09,46.574c0.645,5.781,7.563,10.07,13.43,10.07
			c17.836-0.453,34.957,10.586,42.141,28.067c7.16,17.457,2.554,37.801-11.454,50.641c-4.382,4.027-4.937,10.753-1.246,15.433
			c9.516,12.121,20.438,23.149,32.403,32.777c4.691,3.782,11.519,3.25,15.586-1.234c12.254-13.551,34.179-18.566,51.054-11.484
			c17.68,7.394,28.797,25.261,27.707,44.453c-0.351,6.027,4.071,11.273,10.051,11.961c7.828,0.914,15.699,1.371,23.594,1.371
			c7.496,0,14.988-0.414,22.484-1.246c5.938-0.656,10.336-5.77,10.137-11.731c-0.688-18.98,10.586-36.535,28.023-43.672
			c16.852-6.882,38.536-1.847,50.719,11.539c4.051,4.407,10.738,4.938,15.457,1.293c12.25-9.609,23.391-20.625,33.133-32.757
			c3.777-4.692,3.246-11.52-1.227-15.567c-14.253-12.906-18.878-33.445-11.472-51.09c6.961-16.609,23.793-27.761,41.898-27.761
			l2.531,0.066c5.872,0.477,11.274-4.047,11.985-10.043C410.02,213.555,410.043,197.891,408.309,182.379L408.309,182.379z
			 M205.121,273.867c-37.672,0-68.312-30.644-68.312-68.312c0-37.672,30.64-68.313,68.312-68.313
			c37.668,0,68.309,30.641,68.309,68.313C273.43,243.223,242.789,273.867,205.121,273.867L205.121,273.867z M205.121,273.867"/>
	</g>
</g>
</svg>
