<?xml version="1.0" standalone="no"?>
<!DOCTYPE svg PUBLIC "-//W3C//DTD SVG 20010904//EN"
 "http://www.w3.org/TR/2001/REC-SVG-20010904/DTD/svg10.dtd">
<svg version="1.0" xmlns="http://www.w3.org/2000/svg"
 width="301.000000pt" height="301.000000pt" viewBox="0 0 301.000000 301.000000"
 preserveAspectRatio="xMidYMid meet">
<metadata>
Created by potrace 1.11, written by Peter Selinger 2001-2013
</metadata>
<g transform="translate(0.000000,301.000000) scale(0.100000,-0.100000)"
fill="#000000" stroke="none">
<path d="M0 1505 l0 -1505 1500 0 1500 0 0 1505 0 1505 -1500 0 -1500 0 0
-1505z m1613 1185 c54 0 87 -35 87 -93 0 -128 102 -243 226 -254 90 -8 138 10
251 93 35 25 69 5 177 -106 113 -116 117 -133 60 -202 -50 -59 -66 -102 -66
-174 -1 -140 94 -242 244 -263 43 -6 67 -14 78 -29 21 -25 31 -147 21 -249 -8
-89 -26 -113 -86 -113 -144 0 -265 -121 -265 -265 0 -69 22 -123 70 -179 46
-52 44 -82 -10 -146 -58 -69 -176 -170 -199 -170 -10 0 -38 15 -62 33 -79 61
-108 72 -189 72 -57 0 -84 -5 -115 -22 -84 -45 -144 -138 -145 -224 0 -57 -15
-78 -65 -89 -52 -12 -208 -12 -260 0 -49 11 -65 32 -65 85 0 145 -116 260
-260 258 -76 0 -119 -16 -178 -67 -71 -59 -87 -54 -208 69 -121 122 -127 139
-69 209 48 59 65 105 65 178 -1 143 -97 247 -246 264 -33 4 -64 14 -74 24 -37
37 -37 296 -1 341 11 13 35 23 76 28 112 16 183 61 228 146 17 31 22 58 22
115 0 83 -14 119 -71 183 -19 20 -34 48 -34 61 0 30 80 126 162 195 72 61 101
65 151 21 54 -47 114 -70 185 -70 76 0 124 19 175 68 52 50 78 104 84 173 4
41 12 64 25 76 23 20 115 33 193 27 28 -2 67 -4 88 -4z"/>
<path d="M1383 1876 c-188 -61 -307 -256 -273 -447 23 -128 111 -242 230 -298
48 -23 68 -26 160 -26 99 0 110 2 172 33 147 72 241 236 225 392 -15 139 -100
261 -225 322 -58 29 -78 33 -157 35 -55 2 -106 -3 -132 -11z"/>
</g>
</svg>
